PathFileType	4	(X/Y/Z)	Kaydara																																																																																																																									
DataRate	CameraRate	NumFrames	NumMarkers	Units	OrigDataRate	OrigDataStartFrame	OrigNumFrames																																																																																																																					
30	30	4	41	mm	30	19	115																																																																																																																					
Frame#	Time	PAIB_LFHD			PAIB_RFHD			PAIB_LBHD			PAIB_RBHD			PAIB_LFTShould			PAIB_RFTShould			PAIB_LRRShould			PAIB_RRRShould			PAIB_T10			PAIB_STRN			PAIB_TRUN			PAIB_LSHO			PAIB_LUPA			PAIB_LELB			PAIB_LFRM			PAIB_LWRA			PAIB_LWRB			PAIB_LFIN			PAIB_RSHO			PAIB_RUPA			PAIB_RELB			PAIB_RFRM			PAIB_RWRA			PAIB_RWRB			PAIB_RFIN			PAIB_LFWT			PAIB_RFWT			PAIB_LBWT			PAIB_RBWT			PAIB_LTHI			PAIB_LKNE			PAIB_LSHN			PAIB_LANK			PAIB_LHEE			PAIB_LTOE			PAIB_RTHI			PAIB_RKNE			PAIB_RSHN			PAIB_RANK			PAIB_RHEE			PAIB_RTOE		
		X1	Y1	Z1	X2	Y2	Z2	X3	Y3	Z3	X4	Y4	Z4	X5	Y5	Z5	X6	Y6	Z6	X7	Y7	Z7	X8	Y8	Z8	X9	Y9	Z9	X10	Y10	Z10	X11	Y11	Z11	X12	Y12	Z12	X13	Y13	Z13	X14	Y14	Z14	X15	Y15	Z15	X16	Y16	Z16	X17	Y17	Z17	X18	Y18	Z18	X19	Y19	Z19	X20	Y20	Z20	X21	Y21	Z21	X22	Y22	Z22	X23	Y23	Z23	X24	Y24	Z24	X25	Y25	Z25	X26	Y26	Z26	X27	Y27	Z27	X28	Y28	Z28	X29	Y29	Z29	X30	Y30	Z30	X31	Y31	Z31	X32	Y32	Z32	X33	Y33	Z33	X34	Y34	Z34	X35	Y35	Z35	X36	Y36	Z36	X37	Y37	Z37	X38	Y38	Z38	X39	Y39	Z39	X40	Y40	Z40	X41	Y41	Z41
																																																																																																																												
1	0.6	265.22085	1694.47052	-1966.91193	79.76485	1694.59991	-1979.07318	282.3341	1667.77863	-2093.5405	79.51019	1678.73535	-2095.67307	238.60207	1436.67084	-1994.65897	114.96235	1436.68549	-2002.37625	254.34935	1505.18143	-2135.7283	102.82514	1507.13791	-2135.78339	177.08492	1349.75006	-2221.63864	182.79411	1370.18265	-1960.56427	179.41854	1268.19374	-1940.69565	373.21377	1448.80783	-2069.1687	437.2657	1223.88138	-2097.64374	451.84826	1146.53748	-2142.42645	471.34499	1032.4955	-2093.41034	415.33276	926.81557	-1999.60052	452.4115	904.75243	-2065.06912	465.34431	872.04025	-2000.36377	-10.304	1444.27948	-2065.19119	-83.35339	1282.82822	-2131.66336	-114.0979	1171.15219	-2149.72946	-138.16193	1038.05908	-2112.29416	-83.1267	938.27652	-2010.89264	-150.67255	923.39355	-2056.91772	-143.0553	890.88699	-1990.50766	284.95916	978.94226	-1998.18878	47.3209	979.60014	-2001.67053	226.09455	1019.40567	-2217.32666	81.90798	1029.51736	-2213.18237	274.50928	748.36861	-2205.32074	322.04521	502.6104	-2109.42047	301.25362	313.33471	-2100.9436	302.60967	130.68098	-2192.41745	244.04823	119.78205	-2235.06149	293.06452	75.01549	-2012.08237	25.38443	724.6936	-2196.30463	7.4634	485.9193	-2099.81766	62.0797	297.77395	-2099.98016	30.11446	112.28452	-2210.39963	91.23924	114.08773	-2247.96021	41.05933	76.49815	-2015.40817
2	0.633	265.44315	1694.23859	-1966.17188	79.87266	1694.54208	-1978.34885	282.46624	1667.76718	-2092.76093	79.60271	1679.03458	-2095.04654	238.61029	1436.44409	-1994.6315	115.01392	1436.48865	-2002.07809	254.39434	1504.97711	-2135.19058	102.89292	1507.07733	-2135.53299	177.19995	1349.75601	-2221.33804	182.76657	1370.00885	-1960.5304	179.37754	1267.99606	-1940.70923	373.12359	1448.54309	-2068.71429	437.11784	1223.79272	-2097.28378	451.60786	1146.26328	-2141.78574	470.92037	1032.17392	-2092.84561	414.47926	926.30859	-1999.57016	451.80256	904.34425	-2064.71024	464.48105	871.5345	-2000.23224	-10.21585	1444.12735	-2064.99466	-83.22771	1282.68753	-2131.46622	-113.91096	1170.98946	-2149.51904	-137.87761	1037.83203	-2112.07199	-82.72223	938.06923	-2010.87296	-150.33833	923.18977	-2056.77597	-142.5062	890.59547	-1990.36362	284.87484	978.95721	-1997.84531	47.1442	979.53468	-2001.56448	226.14662	1019.29222	-2216.97357	82.01712	1029.57771	-2212.97104	274.39606	748.29697	-2204.62433	321.93275	502.53944	-2108.85605	301.18471	313.30137	-2100.58441	302.49489	130.78518	-2192.34192	243.94619	119.84888	-2234.95697	293.03545	74.97324	-2012.04086	25.19279	724.84482	-2196.18546	7.45413	485.96981	-2099.63425	62.08181	297.76949	-2099.95071	30.07612	112.37352	-2210.31555	91.27906	114.20528	-2247.92587	41.06762	76.48234	-2015.39459
3	0.667	265.58165	1694.05289	-1965.61035	79.93484	1694.53934	-1977.67181	282.47185	1667.74155	-2092.21161	79.62764	1679.17053	-2094.30466	238.39674	1436.17294	-1994.54742	115.37689	1436.28052	-2001.6214	254.3928	1504.80347	-2134.9617	102.91348	1506.98013	-2135.40024	177.33791	1349.64462	-2221.00174	182.55835	1369.7435	-1960.50491	179.04299	1267.78343	-1940.36804	373.00159	1448.29422	-2068.40927	436.69662	1223.43216	-2096.95663	451.18214	1145.93475	-2141.59653	470.3474	1031.85379	-2092.74841	413.69083	925.96603	-1999.52148	451.11511	904.01619	-2064.68796	463.68076	871.16821	-2000.21622	-10.15404	1443.88382	-2064.98734	-82.97954	1282.44858	-2131.53244	-113.54069	1170.71678	-2149.64157	-137.44094	1037.59842	-2112.18384	-82.32903	937.83051	-2010.85648	-149.77947	922.89452	-2056.80801	-141.95755	890.34409	-1990.38818	284.72795	978.94241	-1997.42874	47.12554	979.85588	-2001.25031	226.25813	1019.21852	-2216.6304	82.14953	1029.53979	-2212.8476	274.23849	748.18176	-2203.97324	321.86947	502.50603	-2108.36044	301.21656	313.28152	-2100.2034	302.53769	130.69124	-2192.21466	243.91903	119.92536	-2234.88617	292.95679	74.93126	-2011.94702	25.10873	724.79317	-2196.06552	7.40134	485.95428	-2099.49921	62.07731	297.74578	-2099.78333	30.13437	112.36832	-2210.19104	91.34151	114.24541	-2247.84943	41.06672	76.46341	-2015.32394
4	0.7	265.60024	1693.97736	-1965.18524	79.91641	1694.52652	-1977.16614	282.36923	1667.58682	-2091.79291	79.54015	1679.0538	-2093.74146	238.29901	1435.7399	-1994.55032	114.73635	1435.85327	-2001.8895	254.33615	1504.58588	-2134.73358	102.93684	1506.74911	-2135.10742	177.44934	1349.42474	-2220.57404	182.4107	1369.37119	-1960.5545	178.71946	1267.27234	-1940.18921	372.9052	1447.79709	-2068.19336	436.21441	1222.76169	-2096.89407	450.69164	1145.46471	-2141.78558	469.67049	1031.30653	-2092.91229	413.22166	925.81772	-1999.24911	449.97822	903.35579	-2064.34784	462.86751	870.65758	-2000.04761	-10.19199	1443.50311	-2065.0032	-82.64938	1281.94717	-2131.86523	-113.00817	1170.22354	-2150.08499	-136.77908	1037.05276	-2112.5174	-81.90718	937.62329	-2010.82809	-149.09492	922.45125	-2057.04254	-141.45918	889.9955	-1990.52994	284.54487	979.0004	-1996.97937	46.85843	979.62189	-2001.2265	226.27501	1019.10141	-2216.30981	82.08431	1029.37111	-2212.61063	274.19506	748.12363	-2203.53027	321.79508	502.46307	-2107.54852	301.16388	313.16101	-2099.74762	302.5388	130.706	-2192.08054	243.96719	120.00537	-2234.82422	292.8657	74.89717	-2011.86981	25.31336	724.67018	-2195.80734	7.37786	485.81551	-2099.11591	62.02551	297.71374	-2099.39728	30.19992	112.36907	-2210.13596	91.38515	114.27523	-2247.81296	41.06696	76.45605	-2015.30838
